<svg width="110" height="30" viewBox="0 0 110 30" fill="none" xmlns="http://www.w3.org/2000/svg">
<g filter="url(#filter0_d_1_65)">
<path d="M11.7109 9V11.5H4.48438V9H11.7109ZM6.125 6.125H9.45313V17.3125C9.45313 17.6198 9.5 17.8594 9.59375 18.0312C9.6875 18.1979 9.81771 18.3151 9.98438 18.3828C10.1563 18.4505 10.3542 18.4844 10.5781 18.4844C10.7344 18.4844 10.8906 18.4714 11.0469 18.4453C11.2031 18.4141 11.3229 18.3906 11.4063 18.375L11.9297 20.8516C11.763 20.9036 11.5286 20.9635 11.2266 21.0313C10.9245 21.1042 10.5573 21.1484 10.125 21.1641C9.32292 21.1953 8.61979 21.0885 8.01563 20.8437C7.41667 20.599 6.95052 20.2187 6.61719 19.7031C6.28385 19.1875 6.11979 18.5365 6.125 17.75V6.125ZM13.8789 21V9H17.1055V11.0937H17.2305C17.4492 10.349 17.8164 9.78646 18.332 9.40625C18.8477 9.02083 19.4414 8.82812 20.1133 8.82812C20.2799 8.82812 20.4596 8.83854 20.6523 8.85937C20.8451 8.88021 21.0143 8.90885 21.1602 8.94531V11.8984C21.0039 11.8516 20.7878 11.8099 20.5117 11.7734C20.2357 11.737 19.9831 11.7188 19.7539 11.7188C19.2643 11.7188 18.8268 11.8255 18.4414 12.0391C18.0612 12.2474 17.7591 12.5391 17.5352 12.9141C17.3164 13.2891 17.207 13.7214 17.207 14.2109V21H13.8789ZM27.791 21.2344C26.5566 21.2344 25.4941 20.9844 24.6035 20.4844C23.7181 19.9792 23.0358 19.2656 22.5566 18.3437C22.0775 17.4167 21.8379 16.3203 21.8379 15.0547C21.8379 13.8203 22.0775 12.737 22.5566 11.8047C23.0358 10.8724 23.7103 10.1458 24.5801 9.625C25.4551 9.10417 26.4811 8.84375 27.6582 8.84375C28.4499 8.84375 29.1868 8.97135 29.8691 9.22656C30.5566 9.47656 31.1556 9.85417 31.666 10.3594C32.1816 10.8646 32.5827 11.5 32.8691 12.2656C33.1556 13.026 33.2988 13.9167 33.2988 14.9375V15.8516H23.166V13.7891H30.166C30.166 13.3099 30.0618 12.8854 29.8535 12.5156C29.6452 12.1458 29.3561 11.8568 28.9863 11.6484C28.6217 11.4349 28.1973 11.3281 27.7129 11.3281C27.2077 11.3281 26.7598 11.4453 26.3691 11.6797C25.9837 11.9089 25.6816 12.2187 25.4629 12.6094C25.2441 12.9948 25.1322 13.4245 25.127 13.8984V15.8594C25.127 16.4531 25.2363 16.9661 25.4551 17.3984C25.679 17.8307 25.9941 18.1641 26.4004 18.3984C26.8066 18.6328 27.2884 18.75 27.8457 18.75C28.2155 18.75 28.554 18.6979 28.8613 18.5938C29.1686 18.4896 29.4316 18.3333 29.6504 18.125C29.8691 17.9167 30.0358 17.6615 30.1504 17.3594L33.2285 17.5625C33.0723 18.3021 32.752 18.9479 32.2676 19.5C31.7884 20.0469 31.1686 20.474 30.4082 20.7813C29.653 21.0833 28.7806 21.2344 27.791 21.2344ZM35.4707 21V9H38.7988V21H35.4707ZM37.1426 7.45312C36.6478 7.45312 36.2233 7.28906 35.8691 6.96094C35.5202 6.6276 35.3457 6.22917 35.3457 5.76562C35.3457 5.30729 35.5202 4.91406 35.8691 4.58594C36.2233 4.2526 36.6478 4.08594 37.1426 4.08594C37.6374 4.08594 38.0592 4.2526 38.4082 4.58594C38.7624 4.91406 38.9395 5.30729 38.9395 5.76562C38.9395 6.22917 38.7624 6.6276 38.4082 6.96094C38.0592 7.28906 37.6374 7.45312 37.1426 7.45312ZM44.793 14.0625V21H41.4648V9H44.6367V11.1172H44.7773C45.043 10.4193 45.4883 9.86719 46.1133 9.46094C46.7383 9.04948 47.4961 8.84375 48.3867 8.84375C49.2201 8.84375 49.9466 9.02604 50.5664 9.39062C51.1862 9.75521 51.668 10.276 52.0117 10.9531C52.3555 11.625 52.5273 12.4271 52.5273 13.3594V21H49.1992V13.9531C49.2044 13.2187 49.0169 12.6458 48.6367 12.2344C48.2565 11.8177 47.7331 11.6094 47.0664 11.6094C46.6185 11.6094 46.2227 11.7057 45.8789 11.8984C45.5404 12.0911 45.2747 12.3724 45.082 12.7422C44.8945 13.1068 44.7982 13.5469 44.793 14.0625ZM60.6191 21.2344C59.3848 21.2344 58.3223 20.9844 57.4316 20.4844C56.5462 19.9792 55.8639 19.2656 55.3848 18.3437C54.9056 17.4167 54.666 16.3203 54.666 15.0547C54.666 13.8203 54.9056 12.737 55.3848 11.8047C55.8639 10.8724 56.5384 10.1458 57.4082 9.625C58.2832 9.10417 59.3092 8.84375 60.4863 8.84375C61.278 8.84375 62.015 8.97135 62.6973 9.22656C63.3848 9.47656 63.9837 9.85417 64.4941 10.3594C65.0098 10.8646 65.4108 11.5 65.6973 12.2656C65.9837 13.026 66.127 13.9167 66.127 14.9375V15.8516H55.9941V13.7891H62.9941C62.9941 13.3099 62.89 12.8854 62.6816 12.5156C62.4733 12.1458 62.1842 11.8568 61.8145 11.6484C61.4499 11.4349 61.0254 11.3281 60.541 11.3281C60.0358 11.3281 59.5879 11.4453 59.1973 11.6797C58.8118 11.9089 58.5098 12.2187 58.291 12.6094C58.0723 12.9948 57.9603 13.4245 57.9551 13.8984V15.8594C57.9551 16.4531 58.0645 16.9661 58.2832 17.3984C58.5072 17.8307 58.8223 18.1641 59.2285 18.3984C59.6348 18.6328 60.1165 18.75 60.6738 18.75C61.0436 18.75 61.3822 18.6979 61.6895 18.5938C61.9967 18.4896 62.2598 18.3333 62.4785 18.125C62.6973 17.9167 62.8639 17.6615 62.9785 17.3594L66.0566 17.5625C65.9004 18.3021 65.5801 18.9479 65.0957 19.5C64.6165 20.0469 63.9967 20.474 63.2363 20.7813C62.4811 21.0833 61.6087 21.2344 60.6191 21.2344ZM70.2441 21.2031C69.7285 21.2031 69.2858 21.0208 68.916 20.6562C68.5514 20.2865 68.3691 19.8437 68.3691 19.3281C68.3691 18.8177 68.5514 18.3802 68.916 18.0156C69.2858 17.651 69.7285 17.4687 70.2441 17.4687C70.7441 17.4687 71.1816 17.651 71.5566 18.0156C71.9316 18.3802 72.1191 18.8177 72.1191 19.3281C72.1191 19.6719 72.0306 19.987 71.8535 20.2734C71.6816 20.5547 71.4551 20.7812 71.1738 20.9531C70.8926 21.1198 70.5827 21.2031 70.2441 21.2031ZM74.8516 21V9H78.0234V11.1172H78.1641C78.4141 10.4141 78.8307 9.85937 79.4141 9.45312C79.9974 9.04687 80.6953 8.84375 81.5078 8.84375C82.3307 8.84375 83.0313 9.04948 83.6094 9.46094C84.1875 9.86719 84.5729 10.4193 84.7656 11.1172H84.8906C85.1354 10.4297 85.5781 9.88021 86.2188 9.46875C86.8646 9.05208 87.6276 8.84375 88.5078 8.84375C89.6276 8.84375 90.5365 9.20052 91.2344 9.91406C91.9375 10.6224 92.2891 11.6276 92.2891 12.9297V21H88.9688V13.5859C88.9688 12.9193 88.7917 12.4193 88.4375 12.0859C88.0833 11.7526 87.6406 11.5859 87.1094 11.5859C86.5052 11.5859 86.0339 11.7786 85.6953 12.1641C85.3568 12.5443 85.1875 13.0469 85.1875 13.6719V21H81.9609V13.5156C81.9609 12.9271 81.7917 12.4583 81.4531 12.1094C81.1198 11.7604 80.6797 11.5859 80.1328 11.5859C79.763 11.5859 79.4297 11.6797 79.1328 11.8672C78.8411 12.0495 78.6094 12.3073 78.4375 12.6406C78.2656 12.9687 78.1797 13.3542 78.1797 13.7969V21H74.8516ZM100.387 21.2344C99.1523 21.2344 98.0898 20.9844 97.1992 20.4844C96.3138 19.9792 95.6315 19.2656 95.1523 18.3437C94.6732 17.4167 94.4336 16.3203 94.4336 15.0547C94.4336 13.8203 94.6732 12.737 95.1523 11.8047C95.6315 10.8724 96.306 10.1458 97.1758 9.625C98.0508 9.10417 99.0768 8.84375 100.254 8.84375C101.046 8.84375 101.783 8.97135 102.465 9.22656C103.152 9.47656 103.751 9.85417 104.262 10.3594C104.777 10.8646 105.178 11.5 105.465 12.2656C105.751 13.026 105.895 13.9167 105.895 14.9375V15.8516H95.7617V13.7891H102.762C102.762 13.3099 102.658 12.8854 102.449 12.5156C102.241 12.1458 101.952 11.8568 101.582 11.6484C101.217 11.4349 100.793 11.3281 100.309 11.3281C99.8034 11.3281 99.3555 11.4453 98.9648 11.6797C98.5794 11.9089 98.2773 12.2187 98.0586 12.6094C97.8398 12.9948 97.7279 13.4245 97.7227 13.8984V15.8594C97.7227 16.4531 97.832 16.9661 98.0508 17.3984C98.2747 17.8307 98.5898 18.1641 98.9961 18.3984C99.4023 18.6328 99.8841 18.75 100.441 18.75C100.811 18.75 101.15 18.6979 101.457 18.5938C101.764 18.4896 102.027 18.3333 102.246 18.125C102.465 17.9167 102.632 17.6615 102.746 17.3594L105.824 17.5625C105.668 18.3021 105.348 18.9479 104.863 19.5C104.384 20.0469 103.764 20.474 103.004 20.7813C102.249 21.0833 101.376 21.2344 100.387 21.2344Z" fill="#89C5CC"/>
</g>
<defs>
<filter id="filter0_d_1_65" x="0" y="0" width="111" height="30" filterUnits="userSpaceOnUse" color-interpolation-filters="sRGB">
<feFlood flood-opacity="0" result="BackgroundImageFix"/>
<feColorMatrix in="SourceAlpha" type="matrix" values="0 0 0 0 0 0 0 0 0 0 0 0 0 0 0 0 0 0 127 0" result="hardAlpha"/>
<feOffset dy="4"/>
<feGaussianBlur stdDeviation="2"/>
<feComposite in2="hardAlpha" operator="out"/>
<feColorMatrix type="matrix" values="0 0 0 0 0 0 0 0 0 0 0 0 0 0 0 0 0 0 0.25 0"/>
<feBlend mode="normal" in2="BackgroundImageFix" result="effect1_dropShadow_1_65"/>
<feBlend mode="normal" in="SourceGraphic" in2="effect1_dropShadow_1_65" result="shape"/>
</filter>
</defs>
</svg>
